<?xml version="1.0" encoding="utf-8"?>
<!-- Generator: Adobe Illustrator 23.0.6, SVG Export Plug-In . SVG Version: 6.00 Build 0)  -->
<svg version="1.1" id="Layer_1" xmlns="http://www.w3.org/2000/svg" xmlns:xlink="http://www.w3.org/1999/xlink" x="0px" y="0px"
	 viewBox="0 0 1366 768" style="enable-background:new 0 0 1366 768;" xml:space="preserve">
<style type="text/css">
	.st0{fill:#5DDFDE;}
	.st1{fill:url(#SVGID_1_);}
</style>
<path class="st0" d="M-14.18,69.59c182.46,34.6,394.81,65.98,633,85.48c279.71,22.9,531.06,24.17,744,15.94
	c3.33,122.91,6.67,245.81,10,368.72c-261.34,49.03-640.71,90.19-1077,31.15c-114.87-15.55-220.38-36.24-316-59.4
	C-18.18,364.18-16.18,216.88-14.18,69.59z"/>
<linearGradient id="SVGID_1_" gradientUnits="userSpaceOnUse" x1="-13.5" y1="308.2044" x2="1379.5" y2="308.2044">
	<stop  offset="0" style="stop-color:#F37847"/>
	<stop  offset="1" style="stop-color:#D74105"/>
</linearGradient>
<path class="st1" d="M-7.5,43C178.71,73.01,391.76,99.15,628,114.35c276.13,17.77,525.79,16.85,741,7.24
	c3.5,130.51,7,261.02,10.5,391.53c-261.34,49.04-640.71,90.19-1077,31.15c-114.87-15.55-220.38-36.24-316-59.4
	C-11.5,337.59-9.5,190.29-7.5,43z"/>
</svg>
