<?xml version="1.0" encoding="utf-8"?>
<!-- Generator: Adobe Illustrator 23.0.6, SVG Export Plug-In . SVG Version: 6.00 Build 0)  -->
<svg version="1.1" xmlns="http://www.w3.org/2000/svg" xmlns:xlink="http://www.w3.org/1999/xlink" x="0px" y="0px"
	 viewBox="0 0 900 768" style="enable-background:new 0 0 900 768;" xml:space="preserve">
<style type="text/css">
	.st0{opacity:0.24;fill:#C92700;}
	.st1{opacity:0.55;fill:url(#SVGID_1_);}
	.st2{display:none;}
	.st3{display:inline;}
	.st4{fill:#FFFFFF;}
	.st5{opacity:0.21;fill:#DCFAFE;}
	.st6{fill:#704745;}
	.st7{fill:#FFB181;}
	.st8{fill:#87BAB3;}
	.st9{fill:#F7B78A;}
	.st10{fill:#B2D6D4;}
	.st11{fill:#FFB180;}
	.st12{fill:#525252;}
	.st13{fill:#474747;}
	.st14{fill:#6A2C00;}
	.st15{fill:#BF5600;}
	.st16{fill:#9F4700;}
	.st17{fill:#435A5F;}
	.st18{fill:#4E676C;}
	.st19{fill:#473334;}
	.st20{fill:#3C292B;}
	.st21{fill:#F2F2F2;}
	.st22{fill:#B03434;}
	.st23{fill:#FEB283;}
	.st24{fill:#902A2D;}
	.st25{fill:#B43435;}
	.st26{fill:#3F2E1C;}
	.st27{fill:none;stroke:#000000;stroke-miterlimit:10;}
</style>
<g id="Layer_2">
</g>
<g id="Layer_1">
	<ellipse class="st0" cx="463.29" cy="691.09" rx="423.18" ry="68.56"/>
	
		<radialGradient id="SVGID_1_" cx="464.3073" cy="314" r="469.6539" gradientTransform="matrix(1.0643 0 0 0.8475 -32.1573 47.8761)" gradientUnits="userSpaceOnUse">
		<stop  offset="0" style="stop-color:#FFA727"/>
		<stop  offset="1" style="stop-color:#FFFFFF"/>
	</radialGradient>
	<path class="st1" d="M32.83,253.06c-1.78-8.25-4.66-28.27,4.93-47.98c19.23-39.51,79.12-58.41,123.34-47.98
		c31.89,7.52,32.44,24.82,65.78,29.41c27.2,3.74,62.9-2.8,80.58-24.77c15.35-19.07,6.24-36.25,11.51-58.82
		C331.65,48.66,416.61,9.61,485.07,5.4c101.02-6.21,206.98,60.92,217.07,131.57c8.68,60.72-56.43,103.17-32.89,139.31
		c14.84,22.79,45.25,12.87,97.03,32.51c53.87,20.43,129.73,72.41,126.63,126.93c-3.36,58.95-98.43,110.07-175.96,108.35
		c-55.63-1.23-63.8-28.83-131.56-35.6c-60.69-6.07-107.73,10.72-164.45,30.96c-117.2,41.82-131.55,83.83-205.56,83.58
		c-14.48-0.05-91.26-0.3-115.12-47.98c-15.52-31.02-5.69-74.51,19.73-99.06c33.44-32.3,77.81-16.78,95.38-47.98
		c13.69-24.31-2.02-53.66-4.93-58.82c-9.48-16.79-35.26-24.89-83.87-41.79c-38.08-13.24-46.35-13.3-60.85-24.77
		C58.55,296.92,38.82,280.84,32.83,253.06z"/>
	<g class="st2">
		<g class="st3">
			<path class="st4" d="M1026.41,349.59c1.93,0,1.93-3,0-3C1024.48,346.59,1024.48,349.59,1026.41,349.59L1026.41,349.59z"/>
		</g>
	</g>
	<path class="st5" d="M853.51,57H41.49C34.59,57,29,51.41,29,44.51v-4.02C29,33.59,34.59,28,41.49,28h812.02
		c6.9,0,12.49,5.59,12.49,12.49v4.02C866,51.41,860.41,57,853.51,57z"/>
	<path class="st5" d="M853.51,131H41.49c-6.9,0-12.49-5.59-12.49-12.49v-4.02c0-6.9,5.59-12.49,12.49-12.49h812.02
		c6.9,0,12.49,5.59,12.49,12.49v4.02C866,125.41,860.41,131,853.51,131z"/>
	<path class="st5" d="M853.51,205H41.49c-6.9,0-12.49-5.59-12.49-12.49v-4.02c0-6.9,5.59-12.49,12.49-12.49h812.02
		c6.9,0,12.49,5.59,12.49,12.49v4.02C866,199.41,860.41,205,853.51,205z"/>
	<path class="st5" d="M853.51,279H41.49c-6.9,0-12.49-5.59-12.49-12.49v-4.02c0-6.9,5.59-12.49,12.49-12.49h812.02
		c6.9,0,12.49,5.59,12.49,12.49v4.02C866,273.41,860.41,279,853.51,279z"/>
	<path class="st5" d="M856.51,353H44.49c-6.9,0-12.49-5.59-12.49-12.49v-4.02c0-6.9,5.59-12.49,12.49-12.49h812.02
		c6.9,0,12.49,5.59,12.49,12.49v4.02C869,347.41,863.41,353,856.51,353z"/>
	<path class="st5" d="M850.51,427H38.49c-6.9,0-12.49-5.59-12.49-12.49v-4.02c0-6.9,5.59-12.49,12.49-12.49h812.02
		c6.9,0,12.49,5.59,12.49,12.49v4.02C863,421.41,857.41,427,850.51,427z"/>
	<path class="st5" d="M853.51,502H41.49c-6.9,0-12.49-5.59-12.49-12.49v-4.02c0-6.9,5.59-12.49,12.49-12.49h812.02
		c6.9,0,12.49,5.59,12.49,12.49v4.02C866,496.41,860.41,502,853.51,502z"/>
	<path class="st5" d="M856.51,580H44.49c-6.9,0-12.49-5.59-12.49-12.49v-4.02c0-6.9,5.59-12.49,12.49-12.49h812.02
		c6.9,0,12.49,5.59,12.49,12.49v4.02C869,574.41,863.41,580,856.51,580z"/>
	<g>
		<path class="st6" d="M607.8,225.82c2.8,3.62,4.87,11.75,4.91,19.64c0.03,4.96,0,7.81-1.96,10.8c-1.8,2.74-4.31,4.18-5.89,4.91
			c1.05,1.97,3.12,5.24,6.87,7.85c5.81,4.06,11.89,3.97,14.73,3.93c14.79-0.21,24.88-12.65,26.51-14.73
			c5.67,2.84,10.6,3.67,13.75,3.93c14.18,1.17,25.02-6.42,28.47-8.84c2.14-1.5,3.79-2.91,4.91-3.93
			c-6.88-3.12-10.82-7.36-12.76-9.82c-3.75-4.74-5.18-9.33-6.87-14.73c-1.86-5.93-2.61-11.08-2.95-14.73
			c0.87-1.85,2.01-4.96,1.96-8.84c-0.09-7.91-5.11-16.76-13.75-19.64c-6.77-2.26-12.82,0.13-14.73,0.98
			c-2.36-1.39-8.09-4.32-15.71-3.93c-7.5,0.39-12.61,3.78-15.71,5.89c-9.14,6.23-12.61,14.77-13.75,17.67
			c-2.54,6.49-2.82,12.46-1.96,15.71c0.69,2.6,1.96,4.91,1.96,4.91C606.7,224.45,607.54,225.48,607.8,225.82z"/>
		<path class="st7" d="M661.8,258.22c0.65,5.56,1.31,11.13,1.96,16.69c4.58,2.29,9.16,4.58,13.75,6.87
			c-0.87,1.03-2.18,2.44-3.93,3.93c-2.29,1.95-7.96,6.65-16.69,7.85c-1.53,0.21-8.07,1-15.71-1.96c-5.2-2.02-8.77-4.94-10.8-6.87
			c4.25-1.96,8.51-3.93,12.76-5.89c-0.33-5.89-0.65-11.78-0.98-17.67c-3.07-1.64-6.94-4.13-10.8-7.85
			c-2.48-2.39-4.41-4.77-5.89-6.87c-0.73,0.07-2.43,0.11-3.93-0.98c-2.75-2-2.13-5.86-1.96-6.87c0.23-1.39,0.69-1.79,0.98-1.96
			c0.78-0.45,1.72-0.1,1.96,0c-0.46-1.95-0.85-4.27-0.98-6.87c-0.07-1.4-0.06-2.72,0-3.93c4.07-0.42,7.41-1.24,9.82-1.96
			c2.8-0.85,7.55-2.32,12.76-5.89c2.62-1.8,4.58-3.59,5.89-4.91c1.59,0.73,3.56,1.47,5.89,1.96c4.91,1.05,9.11,0.56,11.78,0
			c0.98,2.95,1.96,5.89,2.95,8.84c0.51-0.13,1.22-0.22,1.96,0c2.9,0.86,4.88,5.95,2.95,8.84c-0.29,0.43-1.08,1.44-2.95,1.96
			c0.01,2.22-0.21,4.91-0.98,7.85C669.49,250.64,664.47,255.84,661.8,258.22z"/>
		<path class="st4" d="M630.38,284.73c1.51,1.41,3.79,3.27,6.87,4.91c2.84,1.51,12.18,5.93,23.56,2.95
			c9.31-2.44,14.78-8.47,16.69-10.8c-10.15,28.47-20.29,56.95-30.44,85.42C641.51,339.71,635.94,312.22,630.38,284.73z"/>
		<path class="st8" d="M681.44,283.75c4.96,1.54,11.62,4.18,18.65,8.84c6.04,3.99,10.55,8.27,13.75,11.78
			c-12.11,25.85-24.22,51.71-36.33,77.56c-0.98,9.49-1.96,18.98-2.95,28.47c-5.83,2.11-14.24,4.43-24.55,4.91
			c-12.65,0.59-22.92-1.83-29.45-3.93c0,0-5.89-60.87-5.89-60.87l0,0l0,0c-6.7-12.98-8.35-15.88-9.82-19.64
			c-2.51-6.43-4.7-16-2.95-29.45c5.18-4.25,11.69-8.78,19.64-12.76c3.05-1.53,6.01-2.83,8.84-3.93
			c4.91,31.09,9.82,62.18,14.73,93.27c1.96,0,3.93,0,5.89,0C661.14,346.58,671.29,315.16,681.44,283.75z"/>
		<path class="st9" d="M611.73,378c-3.16,2.1-5.99,2.74-7.85,2.95c-8.01,0.89-16.3-4.2-21.6-12.76c-0.65,1.31-1.31,2.62-1.96,3.93
			c1.64,6.22,3.27,12.44,4.91,18.65c5.63,0.37,11.89,0.44,18.65,0c3.44-0.22,6.72-0.56,9.82-0.98
			C613.04,385.85,612.38,381.93,611.73,378z"/>
		<path class="st10" d="M656.89,324c2.58-7.69,6.05-16.35,10.8-25.53c3.21-6.21,6.55-11.77,9.82-16.69
			c1.31,0.65,2.62,1.31,3.93,1.96c1.31,7.53,2.62,15.05,3.93,22.58c-3.6,0.33-7.2,0.65-10.8,0.98c1.64,7.85,3.27,15.71,4.91,23.56
			c-2.52,1.21-5.67,3.07-8.84,5.89c-3.74,3.34-6.26,6.98-9.82,13.75c-2.91,5.52-6.48,13.09-9.82,22.58
			c9.82-0.65,19.64-1.31,29.45-1.96c1.66-17.33,5.13-36.97,11.78-57.93c1.85-5.83,3.83-11.39,5.89-16.69
			c0.65-1.31,1.31-2.62,1.96-3.93c3.85,1.98,6.77,4.14,8.84,5.89c3.06,2.59,5.4,4.6,6.87,7.85c1.51,3.33,1.28,6.35,0.98,9.82
			c-1.09,12.55-1.63,18.82-1.96,20.62c-2.35,12.8-5.24,22.41-5.89,24.55c-2.35,7.72-5.77,17.48-10.8,28.47
			c-0.98,0.98-1.96,1.96-2.95,2.95c-6.26,1.52-11.4,2.42-14.73,2.95c-29.87,4.68-55.58,1-59.89,0c-0.95-0.22-3.54-0.93-6.87-0.98
			c-0.88-0.01-3,0-3.93,0c-0.62-5.19-0.94-7.21-0.98-9.82c-0.03-2.13,0.12-5.15,0.98-8.84c3.9-0.31,7.83-0.64,11.78-0.98
			c6.95-0.61,13.83-1.27,20.62-1.96c-1.33-8.45-3.81-15.09-5.89-19.64c-0.93-2.04-5.71-12.26-15.71-22.58
			c-0.8-0.83-1.49-1.5-1.96-1.96c1.31-2.95,2.62-5.89,3.93-8.84s2.62-5.89,3.93-8.84c-2.45-1.96-5.39-4.01-8.84-5.89
			c-1.34-0.73-2.66-1.39-3.93-1.96c5.56-6.22,11.13-12.44,16.69-18.65c3.12,7.38,5.34,13.78,6.87,18.65
			c2.19,6.96,6.82,22.93,8.84,44.18c0.74,7.77,0.94,14.23,0.98,18.65c0.87-7.94,2.37-16.88,4.91-26.51
			C653.47,334.05,655.15,328.81,656.89,324z"/>
		<path class="st11" d="M530.24,319.09c-4.24-0.19-5.38-4.1-12.76-9.82c-6.03-4.66-7.09-3.47-13.75-8.84
			c-6.06-4.89-7.9-8.08-8.84-10.8c-0.94-2.74-1.05-5.21-0.98-6.87c0.67,0.38,1.74,1.02,2.95,1.96c2.17,1.7,3.42,3.32,3.93,3.93
			c3.1,3.71,9.49,6.93,15.71,6.87c2.49-0.02,4.53-0.53,5.89-0.98c-0.21-2.23-0.22-6.1,1.96-9.82c1.28-2.17,3.28-4.27,3.93-3.93
			c0.7,0.38-0.48,3.33-0.98,7.85c-0.24,2.13,0.17,3.71,0.98,6.87c2.23,8.66,9.53,17.19,10.8,18.65
			C537.15,316.36,534,319.26,530.24,319.09z"/>
		<path class="st10" d="M601.91,301.42c2.26,5.58,4.59,12.87,5.89,21.6c0.93,6.27,1.12,11.92,0.98,16.69
			c-2.29,12.76-4.58,25.53-6.87,38.29c-1.05,0.99-2.08,1.59-2.95,1.96c-4.92,2.15-10.47-0.78-12.76-1.96
			c-7.44-3.85-32.18-26.82-63.82-59.89c0.93-1.68,2.73-4.42,5.89-6.87c3.04-2.36,6.03-3.43,7.85-3.93
			c16.04,16.04,32.07,32.07,48.11,48.11c1.17-9.09,3.43-20.21,7.85-32.4C595.11,314.69,598.56,307.48,601.91,301.42z"/>
		<path class="st12" d="M611.73,549.82c-0.15-8.83-0.68-42.96,0-78.55c0.15-8.05,0.46-20.46,3.93-36.33
			c1.36-6.21,2.84-11.28,3.93-14.73c18.98-0.65,37.96-1.31,56.95-1.96c2.27,3.19,5.21,7.81,7.85,13.75
			c1.86,4.18,7.08,16.93,6.87,35.35c-0.15,13.26-3.01,19.49-6.87,35.35c-2.68,10.99-6.01,27.31-7.85,48.11
			C654.93,550.47,633.33,550.15,611.73,549.82z"/>
		<path class="st13" d="M620.56,411.38c-0.33,2.95-0.65,5.89-0.98,8.84c5.55,2.16,14.02,4.67,24.55,4.91
			c14.82,0.33,26.28-4.01,32.4-6.87c-0.65-2.29-1.31-4.58-1.96-6.87c-8.22,1.79-15.27,2.58-20.62,2.95
			c-5.02,0.34-10.48,0.69-17.67,0C629.79,413.7,624.43,412.47,620.56,411.38z"/>
	</g>
	<g>
		<polygon class="st14" points="710.12,672.78 678.86,718.74 678.86,494.19 710.12,485 		"/>
		<polygon class="st15" points="598.5,485.21 710.12,485.21 678.61,494.4 555.17,494.4 		"/>
		<polygon class="st16" points="555.17,711.07 678.61,718.94 678.61,494.4 555.17,494.4 		"/>
	</g>
	<g>
		<path class="st17" d="M272.03,656.47c0,7.28,0,14.57,0,21.85c17.42,0,34.83,0,52.25,0c-0.41-1.59-1.21-3.7-2.85-5.7
			c-1.1-1.35-4.02-4.23-14.25-5.7c-4.36-0.63-10.92-1.12-19,0c-0.63-3.48-1.27-6.97-1.9-10.45
			C281.53,656.47,276.78,656.47,272.03,656.47z"/>
		<path class="st18" d="M253.03,657.42c0,7.28,0,14.57,0,21.85c17.42,0,34.83,0,52.25,0c-0.41-1.59-1.21-3.7-2.85-5.7
			c-1.1-1.35-4.02-4.23-14.25-5.7c-4.36-0.63-10.92-1.12-19,0c-0.63-3.48-1.27-6.97-1.9-10.45
			C262.53,657.42,257.78,657.42,253.03,657.42z"/>
		<path class="st19" d="M237.83,403.77c1.2,27.23,2.47,54.46,3.8,81.7c2.86,58.29,6.02,116.55,9.5,174.8c6.02,0,12.03,0,18.05,0
			c4.14-45.87,7.95-92.42,11.4-139.65c2.83-38.74,5.36-77.06,7.6-114.95C271.39,405.04,254.61,404.41,237.83,403.77z"/>
		<path class="st20" d="M258.25,395.7c17.42,0,34.83,0,52.25,0c-0.32,13.93-0.63,27.87-0.95,41.8c-4.4,52.6-9.15,105.16-14.25,157.7
			c-2.15,22.17-4.37,44.34-6.65,66.5c-6.65,0.32-13.3,0.63-19.95,0.95c5.7-85.18,11.4-170.37,17.1-255.55
			c-8.87-0.32-17.73-0.63-26.6-0.95C258.89,402.67,258.57,399.18,258.25,395.7z"/>
		<path class="st7" d="M352.3,258.9c0.32-2.85,0.63-5.7,0.95-8.55c-2.08-1.78-3.64-3.45-4.75-4.75c-1.7-1.99-2.91-3.43-3.8-5.7
			c-0.55-1.39-0.72-2.44-0.95-3.8c-0.26-1.57-0.42-2.61,0-2.85c0.59-0.34,2.01,1.06,2.85,1.9c2.54,2.52,2.94,4.26,4.75,4.75
			c0.78,0.21,1.49,0.1,1.9,0c0.4-7.77-0.2-11.89-0.95-14.25c-0.17-0.52-0.89-2.7,0-4.75c0.21-0.48,0.78-1.78,1.9-1.9
			c1-0.1,1.78,0.8,1.9,0.95c0.32-0.63,0.63-1.27,0.95-1.9c0.32-0.32,0.63-0.63,0.95-0.95c0.27-0.1,1.13-0.39,1.9,0
			c1.05,0.53,1.58,2.15,0.95,3.8c0.36-1.12,1.12-1.88,1.9-1.9c0.37-0.01,0.68,0.16,0.77,0.21c0.75,0.41,1.01,1.28,1.13,1.69
			c3.01,11.1,2.85,18.05,2.85,18.05c-0.1,4.21-0.17,7.21-0.95,11.4c-0.97,5.2-2.5,9.39-3.8,12.35
			C359.27,261.43,355.79,260.17,352.3,258.9z"/>
		<path class="st21" d="M247.33,233.72c1.85-0.61,4.87-1.32,8.55-0.95c6.54,0.66,10.84,4.29,12.35,5.7
			c2.12,3.64,5.01,9.14,7.6,16.15c4.31,11.69,5.37,21.14,5.7,23.75c1.48,11.75,7.91,42.56,26.12,116.37
			c-12.03,0.32-24.07,0.63-36.1,0.95c2.26-24.09,2.35-44.2,1.9-58.9c-0.59-19.31-0.95-29.23-4.27-42.27
			c-5.49-21.56-15.29-38.27-19.95-45.6c-1.52-2.39-2.85-4.34-3.8-5.7C246.06,240.06,246.69,236.89,247.33,233.72z"/>
		<path class="st22" d="M270.13,242.27c2.06,1.42,4.12,2.85,6.17,4.27c5.7,1.58,11.4,3.17,17.1,4.75c4.66,3.89,9.46,8.31,14.25,13.3
			c14.81,15.43,24.71,31.33,31.35,44.65c1.68-11.15,3.85-22.9,6.65-35.15c1.5-6.55,3.09-12.89,4.75-19
			c1.77-0.19,4.92-0.28,8.55,0.95c3.15,1.07,5.37,2.7,6.65,3.8c-0.9,5.97-1.85,11.98-2.85,18.05c-2.36,14.27-4.9,28.21-7.6,41.8
			c-0.63,3.48-1.27,6.97-1.9,10.45c-1.1,1.09-3.33,2.99-6.65,3.8c-4.04,0.99-7.4-0.19-9.5-0.95c-4.83-1.76-5.8-4-11.4-7.6
			c-2.11-1.36-5.27-3.15-9.5-4.75c0.89,7.57,2.08,19.08,2.85,33.25c0.29,5.3,0.09,3.13,0.95,29.45c0.56,17.11,0.86,24.77,0.95,37.05
			c0.04,5.58,0.02,10.19,0,13.3c-0.63,1.58-1.27,3.17-1.9,4.75c-3.48-4.43-6.97-8.87-10.45-13.3c-1.27-6.33-2.53-12.67-3.8-19
			c0-3.8,0-7.6,0-11.4c-7.56-31.99-14.57-64.93-20.9-98.8c-1.31-7-2.57-13.96-3.8-20.9c-1.74-9.82-3.38-14.72-4.75-19
			C273.5,250.26,271.58,245.56,270.13,242.27z"/>
		<path class="st23" d="M295.3,319.7c1.58-0.95,3.17-1.9,4.75-2.85c-0.19-1.06-0.37-2.74,0-4.75c0.41-2.24,1.3-3.75,1.9-4.75
			c1.01-1.69,3.22-5.39,6.65-5.7c0.41-0.04,0.75-0.02,0.95,0c0.62-0.19,0.86-0.12,0.95,0c0.33,0.4-0.84,1.52-1.9,3.8
			c-0.49,1.06-0.83,1.79-0.95,2.85c-0.14,1.22,0,2.85,0,2.85c-2.56,0.53,5.3-0.67,7.6-1.9c2.77-1.48,4.13-3.89,5.7-6.65
			c0.97-1.71,2.16-4.26,2.85-7.6c0.04-0.09,0.3-0.75,0.95-0.95c0.68-0.21,1.5,0.17,1.9,0.95c-0.13,3.9-0.55,7.13-0.95,9.5
			c-1.05,6.22-2.33,8.59-2.85,9.5c-1,1.73-2.09,3-2.85,3.8c-5.46,1.51-9.57,3.34-12.35,4.75c-0.94,0.48-3.48,1.9-8.55,4.75
			C297.84,324.77,296.57,322.23,295.3,319.7z"/>
		<path class="st24" d="M286.28,256.52c-1.75-2.57-3.46-4.44-4.75-5.7c-2.6-2.55-5.22-4.36-8.55-6.65c-1.18-0.81-2.17-1.46-2.85-1.9
			c6.15,15.49,9.19,28.11,10.83,36.9c1.07,5.72,1.92,11.93,4.37,24.85c1.22,6.44,2.49,12.77,3.8,19c0.95-0.63,1.9-1.27,2.85-1.9
			c0.03-4.4,0.03-8.83,0-13.3c-0.08-13.59-0.41-26.89-0.95-39.9c-1.4-0.1-3.57-0.49-5.7-1.9c-1.25-0.83-3.4-2.26-3.8-4.75
			c-0.09-0.55-0.4-2.46,0.95-3.8C283.94,256.02,286.11,256.49,286.28,256.52z"/>
		<path class="st25" d="M223.1,262.7c1.58-2.22,3.17-4.43,4.75-6.65c6.02-5.07,12.03-10.13,18.05-15.2
			c4.31,5.39,9.59,12.98,14.25,22.8c4.67,9.84,6.79,17.9,8.55,24.7c2.62,10.14,3.64,18.68,4.75,27.55
			c0.71,5.65,1.15,10.39,1.42,13.77c7.12-4.27,14.25-8.55,21.37-12.82c1.9,4.43,3.8,8.87,5.7,13.3
			c-9.18,7.28-18.37,14.57-27.55,21.85c-0.2,19.46-0.51,39.09-0.95,58.9c-0.27,12.42-0.59,24.77-0.95,37.05
			c-4.43-3.59-10.43-7.75-18.05-11.4c-9.12-4.37-17.47-6.5-23.75-7.6c1.7-14.06,2-25.74,1.9-34.2c-0.11-9.86-0.78-18.3-1.9-32.3
			c-0.69-8.64-1.38-15.83-1.9-20.9c-4.24-7.91-7.34-14.78-9.5-19.95c-3.68-8.8-6.6-15.88-8.55-25.65
			c-1.33-6.66-1.76-12.29-1.9-16.15C213.6,274.1,218.35,268.4,223.1,262.7z"/>
		<path class="st7" d="M248.28,234.67c0.32-2.22,0.63-4.43,0.95-6.65c-0.53-0.19-1.48-0.6-2.37-1.42c-2.37-2.17-2.59-5.58-2.85-9.5
			c-0.17-2.63,0.14-2.54,0-4.75c-0.27-4.39-1.55-7.57-1.9-8.55c-1.71-4.78-2.48-16.68,1.9-24.7c6.99-12.8,26.61-14.75,38-13.3
			c5.68,0.72,10.23,2.4,13.3,3.8c-6.02,19.63-12.03,39.27-18.05,58.9c-0.55,0.81-1.46,1.9-2.85,2.85c-2.71,1.85-5.51,1.93-6.65,1.9
			c-0.32,1.58-0.63,3.17-0.95,4.75c-1.9,3.48-3.8,6.97-5.7,10.45C256.83,243.86,252.55,239.27,248.28,234.67z"/>
		<path class="st26" d="M249.7,156.3c3.15-1.75,6.04-2.25,9.5-2.85c7.73-1.34,10.1,0.5,18.05-0.95c1.05-0.19,4.85-0.93,9.5-2.85
			c5.05-2.09,8.86-4.67,11.4-6.65c-0.32,2.22-0.63,4.43-0.95,6.65c1.58-0.95,3.17-1.9,4.75-2.85c0.19,1.49,0.29,3.44,0,5.7
			c-0.36,2.83-1.19,5.1-1.9,6.65c1.58,0,3.17,0,4.75,0c-0.69,2.12-2.24,5.92-5.7,9.5c-4.32,4.46-9.19,6.07-11.4,6.65
			c-6.03-1.89-11.04-2.05-14.25-1.9c-4.45,0.21-7.71,0.41-10.45,2.85c-3.16,2.82-3.68,6.92-3.8,8.55c0,4.12,0,8.23,0,12.35
			c-1.9,0-3.8,0-5.7,0c0-3.8,0-7.6,0-11.4c-0.87-0.22-2.63-0.53-4.75,0c-1.22,0.31-2.79,0.63-3.8,1.9c-0.76,0.95-0.83,1.94-0.95,3.8
			c-0.53,8.32-0.38,9.29,0,10.45c0.3,0.92,0.85,2.28,1.9,3.8c0,2.22,0,4.43,0,6.65c-2.53,0-5.07,0-7.6,0c-0.26-3.79-0.6-9-0.95-15.2
			c-0.99-17.34-0.79-19.78,0-22.8C238.03,171.75,240.76,161.28,249.7,156.3z"/>
		<path class="st27" d="M226.9,257"/>
		<path class="st25" d="M242.58,265.07L242.58,265.07z"/>
		<path class="st24" d="M242.58,265.07c0.73-4.18,1.38-8.62,1.9-13.3c0.44-3.96,0.75-7.76,0.95-11.4
			c3.84,4.51,8.84,11.15,13.3,19.95c3.59,7.07,5.44,13.09,7.6,19.95c2.66,8.44,4.14,15.16,4.75,18.05
			c1.67,7.98,3.34,18.61,3.8,31.35c-4.12,1.9-8.23,3.8-12.35,5.7c-1.17,0.73-2.19,0.91-2.85,0.95c-2.95,0.17-5.94-2.11-7.6-5.7
			c-6.33-17.42-12.67-34.83-19-52.25c1.73,2.31,4.19,5.85,6.65,10.45c3.47,6.49,4.85,11.18,7.6,19c1.68,4.79,4.2,11.65,7.6,19.95
			c0.23,0.57,0.46,2.4,1.9,3.8c1.46,1.42,3.4,1.8,4.75,1.9c2.53-0.95,5.07-1.9,7.6-2.85c-2.23-7.37-5.02-15.35-8.55-23.75
			c-4.55-10.82-9.47-20.32-14.25-28.5c0.26,0.02,4.18,0.32,6.65-2.85c1.57-2.02,2.33-5.18,0.95-7.6c-1-1.76-2.74-2.43-3.8-2.85
			C246.84,263.77,243.74,264.67,242.58,265.07z"/>
	</g>
	<g>
		<polygon class="st14" points="225.98,673.34 271.59,718.94 271.59,496.12 225.98,487 		"/>
		<polygon class="st15" points="361.5,487 225.98,487 271.59,496.12 394.08,496.12 		"/>
		<polygon class="st16" points="394.08,705.91 271.59,718.94 271.59,496.12 394.08,496.12 		"/>
	</g>
</g>
</svg>
