<?xml version="1.0" encoding="utf-8"?>
<!-- Generator: Adobe Illustrator 23.0.6, SVG Export Plug-In . SVG Version: 6.00 Build 0)  -->
<svg version="1.1" id="Layer_1" xmlns="http://www.w3.org/2000/svg" xmlns:xlink="http://www.w3.org/1999/xlink" x="0px" y="0px"
	 viewBox="0 0 1366 768" style="enable-background:new 0 0 1366 768;" xml:space="preserve">
<style type="text/css">
	.st0{fill:#5DDFDE;}
	.st1{fill:url(#SVGID_1_);}
</style>
<path class="st0" d="M-0.32,67.72c95.71,21.12,176.39,33.98,235,42c189.29,25.91,318.73,42.46,471,6c94.82-22.7,92.23-40.52,171-61
	c111.45-28.98,273.84-34.19,499,68c0.33,202.67,0.67,405.33,1,608c-142.09-35.96-266.93-50-364-55c-100.81-5.2-229.2-11.82-390,21
	c-113.01,23.06-115.31,39.74-210,50c-70.3,7.61-191.09,19.22-320-39c-55.38-25.01-95.83-55.5-121-77
	C-18.99,443.06-9.65,255.39-0.32,67.72z"/>
<linearGradient id="SVGID_1_" gradientUnits="userSpaceOnUse" x1="-28" y1="350.9153" x2="1377" y2="350.9153">
	<stop  offset="0" style="stop-color:#D74105"/>
	<stop  offset="1" style="stop-color:#F37847"/>
</linearGradient>
<path class="st1" d="M0,30.38c95.71,20.69,176.39,33.3,235,41.16c189.29,25.39,318.73,41.61,471,5.88
	c94.82-22.25,92.23-39.71,171-59.78c111.45-28.4,273.84-33.51,499,66.64c0.33,198.61,0.67,397.21,1,595.82
	c-142.09-35.24-266.93-48.99-364-53.9c-100.81-5.09-229.2-11.58-390,20.58c-113.01,22.6-115.31,38.95-210,49
	c-70.3,7.46-191.09,18.84-320-38.22c-55.38-24.51-95.83-54.39-121-75.46C-18.67,398.19-9.33,214.28,0,30.38z"/>
</svg>
